<svg xmlns="http://www.w3.org/2000/svg" viewBox="0 0 200 200" width="200" height="200">
  <circle cx="100" cy="100" r="100" style="fill:#0a0a0a"/>
  <circle cx="100" cy="84" r="16" style="fill:#ffffff"/>
  <rect x="91" y="100" width="18" height="24" rx="9" style="fill:#ffffff"/>
  <path d="M72 106 Q72 130 100 130 Q128 130 128 106" style="fill:none;stroke:#ffffff;stroke-width:4;stroke-linecap:round"/>
  <line x1="100" y1="130" x2="100" y2="144" style="stroke:#ffffff;stroke-width:4;stroke-linecap:round"/>
  <line x1="84" y1="144" x2="116" y2="144" style="stroke:#ffffff;stroke-width:4;stroke-linecap:round"/>
  <rect x="36" y="96" width="6" height="8" rx="3" style="fill:#0071e3;opacity:0.7"/>
  <rect x="48" y="88" width="6" height="24" rx="3" style="fill:#0071e3;opacity:0.8"/>
  <rect x="60" y="82" width="6" height="36" rx="3" style="fill:#0071e3"/>
  <rect x="134" y="82" width="6" height="36" rx="3" style="fill:#0071e3"/>
  <rect x="146" y="88" width="6" height="24" rx="3" style="fill:#0071e3;opacity:0.8"/>
  <rect x="158" y="96" width="6" height="8" rx="3" style="fill:#0071e3;opacity:0.7"/>
</svg>
