<svg xmlns="http://www.w3.org/2000/svg" viewBox="0 0 200 200" width="200" height="200">
  <rect width="200" height="200" rx="44" fill="#7C3AED"/>
  <circle cx="100" cy="80" r="16" fill="#ffffff"/>
  <rect x="91" y="96" width="18" height="24" rx="9" fill="#ffffff"/>
  <path d="M72 102 Q72 126 100 126 Q128 126 128 102" fill="none" stroke="#ffffff" stroke-width="4" stroke-linecap="round"/>
  <line x1="100" y1="126" x2="100" y2="140" stroke="#ffffff" stroke-width="4" stroke-linecap="round"/>
  <line x1="84" y1="140" x2="116" y2="140" stroke="#ffffff" stroke-width="4" stroke-linecap="round"/>
  <rect x="36" y="92" width="6" height="12" rx="3" fill="#ffffff" opacity="0.9"/>
  <rect x="48" y="84" width="6" height="28" rx="3" fill="#ffffff" opacity="0.95"/>
  <rect x="60" y="76" width="6" height="44" rx="3" fill="#ffffff"/>
  <rect x="134" y="76" width="6" height="44" rx="3" fill="#ffffff"/>
  <rect x="146" y="84" width="6" height="28" rx="3" fill="#ffffff" opacity="0.95"/>
  <rect x="158" y="92" width="6" height="12" rx="3" fill="#ffffff" opacity="0.9"/>
</svg>